<svg width="35" height="36" viewBox="0 0 35 36" fill="none" xmlns="http://www.w3.org/2000/svg">
<path d="M6.5625 7.0625H32.8125L29.5312 21.2812H9.84375M29.5312 25.6562H10.9375L5.46875 2.6875H2.1875" stroke="black" stroke-width="2.1875" stroke-linecap="round" stroke-linejoin="round"/>
<path d="M27.3438 32.2188C28.5519 32.2188 29.5312 31.2394 29.5312 30.0312C29.5312 28.8231 28.5519 27.8438 27.3438 27.8438C26.1356 27.8438 25.1562 28.8231 25.1562 30.0312C25.1562 31.2394 26.1356 32.2188 27.3438 32.2188Z" stroke="black" stroke-width="2.1875" stroke-linecap="round" stroke-linejoin="round"/>
<path d="M13.125 32.2188C14.3331 32.2188 15.3125 31.2394 15.3125 30.0312C15.3125 28.8231 14.3331 27.8438 13.125 27.8438C11.9169 27.8438 10.9375 28.8231 10.9375 30.0312C10.9375 31.2394 11.9169 32.2188 13.125 32.2188Z" stroke="black" stroke-width="2.1875" stroke-linecap="round" stroke-linejoin="round"/>
</svg>
