<svg width="36" height="36" viewBox="0 0 36 36" fill="none" xmlns="http://www.w3.org/2000/svg">
<path d="M18 1.33325C8.79504 1.33325 1.33337 8.79492 1.33337 17.9999C1.33337 27.2049 8.79504 34.6666 18 34.6666C27.205 34.6666 34.6667 27.2049 34.6667 17.9999C34.6667 8.79492 27.205 1.33325 18 1.33325Z" stroke="black" stroke-width="2.5" stroke-linecap="round" stroke-linejoin="round"/>
<path d="M5.11841 28.5767C5.11841 28.5767 8.83341 23.8333 18.0001 23.8333C27.1667 23.8333 30.8834 28.5767 30.8834 28.5767M18.0001 18C19.3262 18 20.5979 17.4732 21.5356 16.5355C22.4733 15.5979 23.0001 14.3261 23.0001 13C23.0001 11.6739 22.4733 10.4021 21.5356 9.46447C20.5979 8.52678 19.3262 8 18.0001 8C16.674 8 15.4022 8.52678 14.4645 9.46447C13.5269 10.4021 13.0001 11.6739 13.0001 13C13.0001 14.3261 13.5269 15.5979 14.4645 16.5355C15.4022 17.4732 16.674 18 18.0001 18Z" stroke="black" stroke-width="2.5" stroke-linecap="round" stroke-linejoin="round"/>
</svg>
